/* XPM */
static char *b7c6260c83ff4cecb957f29645a47873[] = {
/* columns rows colors chars-per-pixel */
"16 16 127 2 ",
"   c #5CF40B",
".  c #7CDD2B",
"X  c #6EE624",
"o  c #66EB22",
"O  c #64E92C",
"+  c #74E325",
"@  c #73FF22",
"#  c #66E830",
"$  c #73E132",
"%  c #71E333",
"&  c #75DC43",
"*  c #77DB45",
"=  c #7CDB41",
"-  c #78DA45",
";  c #7DD648",
":  c #75DB4B",
">  c #7CD849",
",  c #7BD551",
"<  c #7BD750",
"1  c #7AD753",
"2  c #7CD652",
"3  c #70E040",
"4  c #81DB2C",
"5  c #80D73B",
"6  c #88D43E",
"7  c #8DD042",
"8  c #81D25C",
"9  c #A8FF4C",
"0  c #B2FF52",
"q  c #B2FF53",
"w  c #B9FF57",
"e  c #83CF63",
"r  c #88CB6A",
"t  c #82D063",
"y  c #FEE77D",
"u  c #FFE97C",
"i  c #FFE87E",
"p  c #FEE97E",
"a  c #FFE97F",
"s  c #FDE782",
"d  c #FEE787",
"f  c #FFE880",
"g  c #FFE981",
"h  c #FEE882",
"j  c #FEE883",
"k  c #FEE885",
"l  c #FCE887",
"z  c #FCE78A",
"x  c #FBE78E",
"c  c #FCE78C",
"v  c #FCE889",
"b  c #FFEF89",
"n  c #FBE88C",
"m  c #FFEE8E",
"M  c #F9E791",
"N  c #F9E793",
"B  c #F8E795",
"V  c #F9E795",
"C  c #F8E797",
"Z  c #FFEF92",
"A  c #F7E79A",
"S  c #F7E79C",
"D  c #F7E69E",
"F  c #F8E799",
"G  c #CDFFA6",
"H  c #D6FFB6",
"J  c #DBFFBC",
"K  c #DBFFBD",
"L  c #DCFFBF",
"P  c #F5E7A0",
"I  c #F4E6A5",
"U  c #F5E6A5",
"Y  c #F3E5A8",
"T  c #F2E6AC",
"R  c #DFFFC6",
"E  c #EAE4CA",
"W  c #E0FFC8",
"Q  c #E4FFCD",
"!  c #E7FFCD",
"~  c #FFFFCA",
"^  c #E7FFD4",
"/  c #E9FFD6",
"(  c #EBFFD6",
")  c #E9FFD8",
"_  c #EBFFDC",
"`  c #EDFFDF",
"'  c #FFFFD4",
"]  c #F1FFDA",
"[  c #F4FFDA",
"{  c #F5FFDC",
"}  c #FFFFD8",
"|  c #FFFFDC",
" . c #FFFFDD",
".. c #EEFFE1",
"X. c #F1FFE4",
"o. c #F1FFE6",
"O. c #F2FFE6",
"+. c #FFFFE1",
"@. c #FFFFE3",
"#. c #FFFFE6",
"$. c #F1FFE9",
"%. c #F2FFEA",
"&. c #F4FFEA",
"*. c #F4FFEC",
"=. c #F5FFEC",
"-. c #F7FFEF",
";. c #FFFFE8",
":. c #FFFFEA",
">. c #FFFFEC",
",. c #FFFFED",
"<. c #FFFFEF",
"1. c #F8FFF1",
"2. c #FFFFF1",
"3. c #FCFFF3",
"4. c #F8FFF4",
"5. c #F9FFF6",
"6. c #FFFFF4",
"7. c #FFFEF5",
"8. c #FFFFF6",
"9. c #FBFFF8",
"0. c #FCFFFA",
"q. c #FFFFFA",
"w. c #FFFFFB",
"e. c #FFFFFD",
"r. c #FFFEFF",
"t. c #FEFFFF",
"y. c white",
/* pixels */
"j b j u u y u y u y y j u y u s ",
"S A F C C C F F C C v s s u y u ",
"#.#.#.#.#.#.#.#.#.' P n j j u j ",
"t.5.o.o.5.t.t.t.t.2.' P v j u u ",
"t.o.e t o.t.t.t.t.q.2.} N u y u ",
"t...G 1 ..t.t.t.t.t.t.:.I n j s ",
"t.o.H e o.t.t.t.t.t.t.2. .Y v u ",
"t.%.L e ! ] { { ( ` 5.q.2.} N u ",
"t.%.R > = 5 7 6 % : ` t.q.+.C y ",
"t.%.K - X 9 w q   O / q.2. .N u ",
"t.%.L - X 9 w q @ # / 5.#.Y x u ",
"t.-.W , % + 4 . o 3 ` <.' D v s ",
"t.-.) r , - ; ; & 8 X.<.~ C k u ",
"q.2.o./ R L L L J Q -.:.I c k j ",
"<.<.5.1.&.%.&.&.%.-.q.#.S k s v ",
"E :.q.t.t.t.t.t.t.t.t.#.F j m Z "
};
