/* XPM */
static char *_dcdb0d2d6194be8f7781f1898e15c5e[] = {
/* columns rows colors chars-per-pixel */
"32 32 90 1 ",
"  c #52FA07",
". c #56F70A",
"X c #59F50C",
"o c #53F90B",
"O c #59FB08",
"+ c #5BEF1D",
"@ c #55F612",
"# c #59F414",
"$ c #5AFA12",
"% c #5EF31D",
"& c #61F516",
"* c #63FA15",
"= c #62F41C",
"- c #74F61F",
"; c #71F81A",
": c #5CF020",
"> c #64F325",
", c #6BFB22",
"< c #7EF623",
"1 c #7BF822",
"2 c #78F128",
"3 c #6DED38",
"4 c #74FA3B",
"5 c #79F545",
"6 c #7FFA47",
"7 c #7DF24C",
"8 c #7FFA4B",
"9 c #83F92B",
"0 c #84EF31",
"q c #88EE33",
"w c #85F032",
"e c #83FC31",
"r c #8EFC39",
"t c #A5F93F",
"y c #86F54E",
"u c #81F84E",
"i c #80EF53",
"p c #85F556",
"a c #89F451",
"s c #81F850",
"d c #86F35A",
"f c #88F25B",
"g c #A8F746",
"h c #ACF949",
"j c #BFFA54",
"k c #8CEF61",
"l c #A2F77E",
"z c #C4F657",
"x c #C1F854",
"c c #C5F55A",
"v c #C9F35C",
"b c #C5F95C",
"n c #E4F96E",
"m c #FEE77D",
"M c #FFE87E",
"N c #E7F772",
"B c #ECF473",
"V c #E5F970",
"C c #A5F584",
"Z c #AAFF85",
"A c #B0FF8F",
"S c #FEE781",
"D c #FEE883",
"F c #FBE78C",
"G c #FDE98B",
"H c #F8E797",
"J c #FFED93",
"K c #FFED9B",
"L c #C7FFAA",
"P c #C8FFAE",
"I c #CCFFB5",
"U c #CEFFBA",
"Y c #D1FFBE",
"T c #FDEDA4",
"R c #FCEEAA",
"E c #FBEDB0",
"W c #FDF1BC",
"Q c #D6FFC3",
"! c #DBFFCC",
"~ c #FFF5C2",
"^ c #FFFAD5",
"/ c #FFFADB",
"( c #EFFFE4",
") c #F1FFE6",
"_ c #FFFAE3",
"` c #F5FFEE",
"' c #FCFEEF",
"] c #F7FFF1",
"[ c #FEFFF4",
"{ c #FEFFFD",
/* pixels */
"SDJJDMMMmmmmSMmmMMMMMMMMMMMMMMMm",
"SGGGDDDDSMSSSDDDDDDMDMMMMMMMMMMM",
"GGGGGDGGFGFFGGDDDGGSDDDmMMMMMMMM",
"TTRRRTRTTTTTTRRTRTTKGSMmMMMMMMMM",
"/^///^//^///////^^^WTGSmMMDMMMDm",
"[[[[][[[[[[[[[[[[['/WKGGDDMDMMMD",
"{{{[]``'{{{{{{{{{{{'/~TFDDMMMMMM",
"{{{`!YY!({{{{{{{{{{{[/WKGDDMMMMM",
"{{]!CkkC!]{{{{{{{{{{['/~KDDmMMMM",
"{{{!Ci3dU`{{{{{{{{{{{{[^TGDMMMMm",
"{{{)QA7dU`{{{{{{{{{{{{[/RGDDmMMM",
"{{{])PddU`{{{{{{{{{{{{[_WTGDDMMM",
"{{{{`IdfU`{{{{{{{{{{{{{[_~TGDMMM",
"{{{{`UddI`]{{{{[{{{{{{{{[/WTGDDM",
"{{{]`UdpP(`````'```]]{{{{'/~KDMM",
"{{{{`Up5ZLPIIIYIIUU!`[{{{{[^TDSM",
"{{{]]Is>48aaaaayuypl!]{{{{[^TSSm",
"{{{{`I7#@&2wqq02=#%pI]{{{{[^TGSm",
"{{{{`I8#X-gcvvcg-##sI]]{{{'^KGSm",
"{{{{`I8@.1jNBBnz9&#uI`{{{[/~KDDS",
"{{{{`I8@X<jnBBNbr,=8I]{{{_WTGSSM",
"{{{{`I8@.;txvzzhe,%8I`{{[/RFGmMM",
"{{{{]I8@ O;<9<<;*$#uI`{{[/TGSMMM",
"{{{{`Iu#  ..XX...o#sI]]{[^TGDMMM",
"{{{{]Up+@@@###X#@#%pU][{[^TGSmmD",
"{{{{]!lpu88888uu8udl!]{'/~JGmmMm",
"{{{{{)!UIIIIIIIPIIU!`]{_WTGmMMMM",
"{{{{{{]]]````````]]]{{[/RFGmMMMM",
"[[{{{{{{{{{{{{{{{{{{{{[/RDDMMMMM",
"__[{{{{{{{{{{{{{{{{{{{[/TGDDDGGG",
"E~_{{{{{{{{{{{{{{{{{{{[/TDDDGJJJ",
"HE/{{{{{{{{{{{{{{{{{{{[^TGMDJJKK"
};
