/* XPM */
static char *_71fe9c5e63641cfaaa441d7212ebe22[] = {
/* columns rows colors chars-per-pixel */
"64 64 195 2 ",
"   c #02FE1F",
".  c #0BF91F",
"X  c #12F61E",
"o  c #1CF11C",
"O  c #25ED1B",
"+  c #1AEF2D",
"@  c #1CEF24",
"#  c #0DF723",
"$  c #01FE21",
"%  c #0AF922",
"&  c #0CF728",
"*  c #0CF829",
"=  c #13F521",
"-  c #14F22D",
";  c #1AF625",
":  c #1CED33",
">  c #1EEB38",
",  c #15F131",
"<  c #27EB23",
"1  c #39F62D",
"2  c #22E936",
"3  c #2BE33C",
"4  c #24E939",
"5  c #2CEE38",
"6  c #3DFC35",
"7  c #26F52D",
"8  c #42E82E",
"9  c #44EE33",
"0  c #57FD38",
"q  c #41F62B",
"w  c #63E239",
"e  c #32E444",
"r  c #33EA43",
"t  c #39E349",
"y  c #3AE748",
"u  c #2FF442",
"i  c #3BF449",
"p  c #2BEA42",
"a  c #44DB58",
"s  c #53DF5A",
"d  c #42ED4F",
"f  c #52F54E",
"g  c #46EB51",
"h  c #53EB5E",
"j  c #4CF058",
"k  c #56FB59",
"l  c #68FF42",
"z  c #71FE42",
"x  c #76FF49",
"c  c #76FF54",
"v  c #52DC63",
"b  c #56EB61",
"n  c #5BEA65",
"m  c #5DF264",
"M  c #65FF67",
"N  c #6BEA76",
"B  c #69F473",
"V  c #69FF77",
"C  c #74F87B",
"Z  c #65EF68",
"A  c #FFD701",
"S  c #FFD800",
"D  c #FCD70C",
"F  c #FCD80A",
"G  c #FBD713",
"H  c #FCD814",
"J  c #F8D61C",
"K  c #F7D71F",
"L  c #F6D622",
"P  c #F9D622",
"I  c #F5D52B",
"U  c #F8D728",
"Y  c #FBDB2C",
"T  c #F9D924",
"R  c #F3D534",
"E  c #FDDD34",
"W  c #F2D53B",
"Q  c #FCDD3C",
"!  c #F6D83A",
"~  c #FEE03D",
"^  c #9BFB4C",
"/  c #97FB57",
"(  c #ABFA57",
")  c #B7F75B",
"_  c #B8F75B",
"`  c #99FF65",
"'  c #80FF7E",
"]  c #B5FF64",
"[  c #ABF562",
"{  c #FBDD43",
"}  c #F7DC48",
"|  c #FADE52",
" . c #EAD24C",
".. c #C3F256",
"X. c #FFE242",
"o. c #FEE34B",
"O. c #FEE454",
"+. c #FDE35C",
"@. c #FFE95A",
"#. c #EBD669",
"$. c #DEEE69",
"%. c #D6F166",
"&. c #C9FF73",
"*. c #C1FF71",
"=. c #D2FF79",
"-. c #D4FC75",
";. c #CDF767",
":. c #E4ED6C",
">. c #FDE464",
",. c #FFEA64",
"<. c #FFEA6B",
"1. c #FFF06E",
"2. c #FFEB74",
"3. c #FFEC7D",
"4. c #F7EA76",
"5. c #E7F377",
"6. c #FFF17D",
"7. c #7FFF8B",
"8. c #83FE8B",
"9. c #87FC88",
"0. c #95FF87",
"q. c #8BFC95",
"w. c #8DFA99",
"e. c #92FF94",
"r. c #99FF9F",
"t. c #96FD98",
"y. c #9CFFA3",
"u. c #A3FFA4",
"i. c #ABFFA2",
"p. c #A4FFAA",
"a. c #ABFFAC",
"s. c #B4FFAF",
"d. c #B6FFA4",
"f. c #ADFFB2",
"g. c #B0FFB1",
"h. c #B6FFB8",
"j. c #BBFFBC",
"k. c #BEFFB1",
"l. c #FFED84",
"z. c #FFEB8C",
"x. c #F9E785",
"c. c #FFF182",
"v. c #FFF28B",
"b. c #EEE19D",
"n. c #FFEC93",
"m. c #FEED9D",
"M. c #FFF494",
"N. c #FFF19B",
"B. c #C4FFBB",
"V. c #FEEDA2",
"C. c #FEEFAB",
"Z. c #FFF1A4",
"A. c #FFF0AD",
"S. c #FFF8AB",
"D. c #FFF3B4",
"F. c #FFFCB5",
"G. c #FFF3BB",
"H. c #FFFBBC",
"J. c #BEFFC1",
"K. c #C3FFC2",
"L. c #CAFFC6",
"P. c #CDFFCA",
"I. c #C5FFC8",
"U. c #D0FFC3",
"Y. c #D3FFCC",
"T. c #D9FFCA",
"R. c #CCFFD3",
"E. c #C7FFD3",
"W. c #D6FFD5",
"Q. c #DBFFD3",
"!. c #D5FFDA",
"~. c #DCFFDB",
"^. c #FFF4C3",
"/. c #FFFCC1",
"(. c #FFF5CB",
"). c #FFFCCE",
"_. c #E3FFDD",
"`. c #E0FFD4",
"'. c #FFF6D3",
"]. c #FFF8D3",
"[. c #FFF7D9",
"{. c #FFF9DD",
"}. c #DCFFE2",
"|. c #E4FFE4",
" X c #EAFFE4",
".X c #E7FFE8",
"XX c #EBFFEA",
"oX c #FFFAE3",
"OX c #F1FFED",
"+X c #FFFCEB",
"@X c #EEFFF2",
"#X c #F4FFF3",
"$X c #FDFDF4",
"%X c #F6FFF8",
"&X c #FFFFFE",
/* pixels */
"S S S S S S F S F S S S S S S S S S S S S S S S S S A A S S S S S S S S S S S S S S S S S S S S S S S S S S S S S S S S S A S S ",
"S S S S S S F S S S S S S S S S S S S S S S S S S S A A S S S S S S S S S S S S S S S S S S S S S S S S S S S S S S S S S A S S ",
"S S S S S S S S S S S S S S S S S S S S S S S A S A S S S S S S S S S S S S S S S S S S S S S S S S S S S S S S S S S S S S S S ",
"S S S S S S S S S S S S S S S S S S F F F F F A F F A F F S F F S S S S S S S S S S S S S S S S S S S S S S S S S S S S S S S S ",
"S S A A A A S S A A A A S S S S F S D G G G G G G G G G G G G D F A S S S A S S S S S S A S S S S S S S S S S S S S A A S S S S ",
"F F D D D D G D G G J G H J J P P U ~ ~ Q X.Q Q ~ Q ~ Q ~ ~ ~ Q Y L P K J J J G D F F S S S S S S S S S S S S S S S A A S S S S ",
"G J J L I R R W W } +.+.+.+.>.2.3.l.l.l.l.l.z.l.l.l.l.l.l.l.l.l.c.3.3.2.2.+.| Q I J F F S S S S S S S S S S S S S S S S S S A A ",
"O.O.O.<.3.c.c.c.v.M.M.N.M.N.Z.A.C.A.A.A.C.D.A.C.A.A.D.D.A.A.D.C.A.A.C.C.Z.m.v.3.<.o.Y G F F S S S S S S S S S S S S S S S S A A ",
"S.F.D.D.H.G.G.G.G.G.^.^.^.^.^.(.^.(.(.(.(.(.(.(.(.^.(.(.^.(.(.(.(.(.(.(.^.^.D.V.n.3.<.o.U H F A S S S S S A S S S S S S S S S S ",
"oXoXoXoXoXoXoXoXoXoXoX{.oXoXoXoXoXoXoXoXoX{.{.oXoXoXoXoXoXoXoXoXoXoXoX{.oX[.'.G.C.m.z.2.@.E G F A S S S S S S S S S S S S S S S ",
"$X$X+X$X+X$X+X$X$X$X$X$X+X$X$X+X+X$X$X+X$X$X$X$X$X+X+X$X$X$X+X$X$X+X+X$X+X+XoX(.G.C.m.z.3.>.Q J F A S A S S S S S S S S S S S S ",
"&X$X&X$X&X&X&X$X&X$X&X$X&X$X&X&X&X$X&X&X&X$X&X$X&X&X&X&X&X$X&X&X&X&X$X&X&X$X+X{.(.G.C.m.n.3.>.E G A S S A S S S A S S S S A S S ",
"&X&X&X&X&X&X&X&X&X&X&X&X&X&X$X&X&X&X&X&X&X&X&X&X&X&X&X&X&X&X&X&X&X&X&X&X&X$X$XoX{.'.^.A.m.z.3.+.T D S S S A S A S S S S S S S S ",
"&X&X&X&X&X&X&X#XOXXX.X.X XOXOX#X$X%X&X&X&X&X&X&X&X&X&X&X&X&X&X&X&X&X&X&X&X&X$X$X+X{.'.^.A.m.z.2.o.J F A S S S S S S S S S S S S ",
"&X&X&X&X&X%X#X XQ.P.K.B.L.T.`. XOX$X%X&X&X&X&X&X&X&X&X&X&X&X&X&X&X&X&X&X&X&X&X$X$X+XoX'.^.C.m.x.<.{ H F A S S S S S A S S S S S ",
"&X&X&X&X%X#X XT.p.N h Z 9.9.u.L._.OX%X&X&X&X&X&X&X&X&X&X&X&X&X&X&X&X&X&X&X&X&X&X&X$X+XoX(.G.C.m.z.<.U F F S S S S S S S S S S S ",
"&X&X&X&X%XXXQ.a.g : : - : 2 r C L._.$X&X&X&X&X&X&X&X&X&X&X&X&X&X&X&X&X&X&X&X&X&X&X$X$X+X{.(.^.C.m.3.O.P F A S S S S S S S S S S ",
"&X&X&X&X&X|.B.C : $ $ $   $ & r a.Q.OX&X&X&X%X&X&X&X&X&X&X&X&X&X&X&X&X&X&X&X&X&X&X&X$X$X+XoX'.^.C.z.<.E G A S S S S S S S A S S ",
"&X&X&X&X%X_.u.e - $ $ $ $ $ $ : C P.XX&X&X&X&X&X&X&X&X&X&X&X&X&X&X&X&X&X&X&X&X&X&X&X&X$X$X+X[.(.A.n.3.O.J F A A S S S S S S A A ",
"&X&X&X&X&X~.q.3 & $ $ $ $ $ $ + b K..X&X&X&X&X&X&X&X&X&X&X&X&X&X&X&X&X&X&X&X&X&X&X&X&X&X&X$XoX'.G.m.z.<.E F F A S S S S S S A A ",
"&X&X&X&X$X.Xy.t & $ $ $ $ $ $ - h J. X&X&X&X&X&X&X&X&X&X&X&X&X&X&X&X&X&X&X&X&X&X&X&X&X&X&X$X+X'.G.m.x.2.| J F A S S S S S S S S ",
"&X&X&X&X&XXXR.N e : , & $ $ $ , h J. X&X&X&X&X&X&X&X&X&X&X&X&X&X&X&X&X&X&X&X&X&X&X&X&X&X&X&X+X'.G.V.n.x.>.Q G A S S S S S S S S ",
"&X&X&X&X&X%XXX!.w.B V u & $ $ - h j..X&X&X&X&X&X&X&X&X&X&X&X&X&X&X&X&X&X&X&X&X&X&X&X&X&X&X$X+X[.^.A.V.z.3.O.J A S S S S S S S S ",
"&X&X&X&X&X&X%X#X|.I.u.d - $ $ , h J..X&X&X&X&X&X&X&X&X&X&X&X&X&X&X&X&X&X&X&X&X&X&X&X&X&X&X$X$XoX'.G.C.V.n.2.E G F S S A S S S S ",
"&X&X&X&X&X&X&X%XOXQ.a.g -     - h j..X%X&X&X&X&X&X&X&X&X&X&X&X&X&X&X&X&X&X&X&X&X&X&X&X&X&X&X$X+X[.'.^.D.V.l.O.L F A A A S S S S ",
"&X&X&X&X&X&X&X&X%X~.g.g - $ $ - h J..X&X&X&X&X&X&X&X&X&X&X&X&X&X&X&X&X&X&X&X&X&X&X&X&X&X&X&X$X$X+XoX'.^.C.n.<.Q H S A A S S S S ",
"&X&X&X&X&X&X&X&X%X~.g.g -   $ , h j..X&X&X&X&X&X&X&X&X&X&X&X&X&X&X&X&X&X&X&X&X&X&X&X&X&X&X&X&X$X$X+XoX'.G.C.n.,.K F A A S S S S ",
"&X&X&X&X&X&X&X$X%X~.s.g - $ $ - h j..X&X&X&X&X&X&X&X&X&X&X&X&X&X&X&X&X&X&X&X&X&X&X&X&X&X&X&X&X$X&X&X+X{.'.G.A.l.E G A A S S S S ",
"&X&X&X&X&X&X&X&X$X~.g.g - $ $ - h j..X%X&X&X&X&X&X&X&X&X&X&X&X$X&X$X$X$X&X&X&X&X&X&X&X&X&X&X&X&X&X&X+X+X{.'.^.N.,.L F S S S S S ",
"&X&X&X&X&X&X&X&X%X~.a.g - $ $ - j f.W.|..X.X.X X.X.X.X.X.X XXXXX@XOX#XOXOX#X#X$X%X%X&X&X&X&X&X&X&X$X&X$X+XoX'.D.6.! G S S S A S ",
"&X&X&X&X&X&X&X&X&X!.r.r - $ $ & i w.h.J.j.J.K.K.J.J.J.J.K.K.K.L.Y.Y.T.Q.Q.Q._. XOX$X%X&X&X&X&X&X&X$X$X&X$X+X{.^.M.| G S S S S S ",
"&X&X&X&X&X&X&X&X%XQ.8.3 *   $ % 7 i j b h b b h b b b n b b n 7.e.w.w.t.i.k.B.U._.XX$X&X&X&X&X&X&X&X&X&X&X$XoX(.Z.>.K S S S S A ",
"&X&X&X&X&X&X&X&X#X!.8.2 & $ $ $ % & - , - , - - - , - - , + + : : : : 2 r M 0.d.B._.+X&X&X&X&X&X&X&X&X&X&X$X+X].S.2.J S A A S S ",
"&X&X&X&X&X&X&X$X%XW.7.2 * $ $ $ $ $ $ $ $ $ $ $ $ $ $ $ $ $ $       $ % * < f 0.k.`.OX&X&X&X&X&X&X&X&X&X&X&XoX].D.l.L S A A S S ",
"&X&X&X&X&X&X&X&X%XQ.7.2 & $ $ $ $ $ $ $ $ $ $ % $ $ $ $ $ $ $ $   $ $ $   * + k d.T. X$X&X&X&X&X&X&X&X&X&X$X+X].G.l.J A S S A S ",
"&X&X&X&X&X&X&X&X%X!.7.2 * $ $ $ $ $ $ $ $ $ $ $ $ $ $ $ $ $ $ $   $ $ $ $ $ % 5 t.U. X%X&X&X&X&X&X&X&X&X&X$X+X'.D.l.L A S S S S ",
"&X&X&X&X&X&X&X&X%XW.7.2 & $ $ $ $ $ $ $ $ $ $ $ $ $ $ $ $ $ $ $ $ $ $ $ $ $ $ + ' B. X&X&X&X&X&X&X&X&X&X&X$X+X'.D.l.L S S S S S ",
"&X&X&X&X&X&X&X&X%XQ.8.2 & $ $ $ $ $ $ $ $ $ % $ $ % $ $ $ $ $ $ $ $ $ $   $   : Z j. X%X&X&X&X&X&X&X&X&X&X$XoX'.D.3.J S S S S A ",
"&X&X&X&X&X&X&X&X%XW.7.2 & $ $ $ $ $ $ $ . . # & & % % $ $ $ $ $ $ $ $ $ $ $ $ + Z k.|.$X&X&X&X&X&X&X&X$X$X+X[.^.A.2.K S S S S S ",
"&X&X&X&X&X&X&X&X%XW.7.2 % $ $ $ $ $ % ; 1 1 9 9 9 9 < < @ = % $ $ $ $ $ $ $ $ + m j.|.%X&X&X&X&X&X&X$X$XoX[.(.G.N.>.J S S S S S ",
"&X&X&X&X&X&X&X&X%XW.8.2 & $ $ $ $   o 0 / ) &.=.=.&.[ / w 1 + % $   $ $ $ $ $ - m j._.$X&X&X&X&X&X&X+X+X[.^.G.V.v.} G S S S S S ",
"&X&X&X&X&X&X&X&X%XW.7.2 * $ $ $ $ X o 0 ( ;.:.4.4.5.5.-.*.` 1 = %   $ $ $ $ $ - m j.|.&X&X&X&X&X&X&X+XoX(.D.C.z.<.Q G S S S S S ",
"&X&X&X&X&X&X&X&X%XQ.7.2 & $ $ $ $ % o 0 ^ ..%.$.:.$.$.%.;.] c < % $ $ $ $ $   - m j.|.%X&X&X&X&X&X$X+X[.^.C.m.3.@.I D S S S S S ",
"&X&X&X&X&X&X&X&X%XW.7.2 & $ $ $ $   X 1 x ^ ( ) _ _ _ _ _ / c O . $ $ $       - m h.|.$X&X&X&X&X&X$X+X[.G.V.n.2.X.H F S S S S S ",
"&X&X&X&X&X&X&X&X%XW.8.2 * $ $ $ $ $   X 7 q 0 0 z z z z z l 6 = % $ $ $ $ $   - j a._.%X&X&X&X&X&X$X+X'.G.m.z.<.Y F A S S S S S ",
"&X&X&X&X&X&X&X&X%XW.7.2 * $ $ $ $ $ $ $ . X O O O O O O O o X % $ $ $ $ $ $   - 3 y.|.%X&X&X&X&X&X$X+X[.G.m.x.,.K F S S S S S S ",
"&X&X&X&X&X&X&X&X%XQ.7.2 &   $ $ $ $ $ $ %   % . X % . . . . $ $ $ $ $ $ $ $ $ * 3 y.~.$X&X&X&X&X&X$X+X'.D.m.x.O.J S S S S S S S ",
"&X&X&X&X&X&X&X&X%XW.8.2 & $ $ $ $ $ $ $ $ $ $ $ $ $ $ $ $   $ $ $ $     $ $ $ - 3 r.~.&X&X&X&X&X&X$X+X'.G.n.6.X.H S S S S S S S ",
"&X&X&X&X&X&X&X&X%XQ.8.4 = $ $ $ $ $ $ $     $ $ $ $ $ $ $ $ $ $ $   % % $ $ $ & 3 y.~.%X&X&X&X&X&X$X+X'.G.n.<.I G S A S S S A A ",
"&X&X&X&X&X&X&X&X&X!.t.r - $ $ $ $ $ $ $     $ $ $ $ $ $ $ $ $ $ $       $ $ $ , t p._.$X&X&X&X&X$X$XoX'.D.n.@.K F S S S S S A A ",
"&X&X&X&X&X&X&X&X$X|.h.h + $ $ $ $ $ $ $ $ $ $ $ $ $     $ $ $ $ $ $ $ $ $ $ $ , n j.|.&X&X$X$X$X$X+X[.(.A.c.~ H F A S S A A A A ",
"&X&X&X&X&X&X&X&X%X XY.q.r - - & * * $ $ $ $ $ $ $ $     $ $ $ $ $ $ $ $ $ $ $ > 9.P.XX%X&X&X&X+X+X[.(.G.Z.2.Y F A A S S A A A A ",
"&X&X&X&X&X&X&X&X%XOX_.K.q.h y 4 , & * $ $ $ $ $ $ $ $ $ $ $ $ $ $ $ $ $ $ * & y h.|.#X&X&X&X$X+X'.(.G.V.z.>.J S S S S S S S S S ",
"&X&X&X&X&X&X&X&X&X$XOX_.L.k.p.8.V y e p 2 > > > > > > : > > > > : , , , , 4 t q.W.OX$X&X&X$X+X{.(.D.V.z.2.{ H S A S S S S S S S ",
"&X&X&X&X&X&X&X&X&X&X#XOX X_.Q.!.W.P.R.I.y.w.w.w.w.q.w.w.w.w.w.q.7.v a a a N f.!.XX%X%X&X&X$X+X'.^.V.b.3.o.P F S S S S S S S S S ",
"&X&X&X&X&X&X&X&X&X&X&X&X%X$X$X%X$X$X%X#XXX.X.X.X|.|..X}..X}..X}.}.!.R.E.R.!.@X#X&X&X&X&X&X$X+X].G.m.x.>.U D F S S S S S S S S S ",
"&X&X&X&X&X&X&X&X&X&X&X&X&X&X&X&X&X&X&X&X#X#X%X#X%X#X%X#X%X#X%X#X@X@X@X@X@X#X%X&X&X&X&X&X&X$X+X'.G.n.<.E G F S S S S S S S S S S ",
"+X+X$X&X&X&X&X&X&X&X&X&X&X&X&X&X&X&X&X&X&X&X&X&X&X&X&X&X&X&X&X&X&X&X&X&X&X&X&X&X&X&X&X&X&X&XoX).Z.l.o.J F S S S S S S S A S S S ",
"/.).oX$X$X&X&X&X&X&X&X&X&X&X&X&X&X&X&X&X&X&X&X&X&X&X&X&X&X&X&X&X&X&X&X&X&X&X&X&X&X&X&X&X&X$XoX^.v.X.J F A A S S S S S S A A S S ",
"#.x.^.{.+X$X&X&X&X&X&X&X&X&X&X&X&X&X&X&X&X&X&X&X&X&X&X&X&X&X&X&X&X&X&X&X&X&X&X&X&X&X&X&X&X+X{.S.| L F A S A S A S S S S A A S S ",
"H R 4.H.{.$X&X&X&X&X&X&X&X&X&X&X&X&X&X&X&X&X&X&X&X&X&X&X&X&X&X&X&X&X&X&X&X&X&X&X&X&X&X&X&X+XH.4.I F A A S S A S S S S S S S S S ",
"S H W v.).$X$X&X&X&X&X&X&X&X&X&X&X&X&X&X&X&X&X&X&X&X&X&X&X&X&X&X&X&X&X&X&X&X&X&X&X$X$XoX{./.v.W G S S S S A S S S S S S S S S S ",
"A F J +.H.+X&X&X&X&X&X&X&X&X&X&X&X&X&X&X&X&X&X&X&X&X&X&X&X&X&X&X&X&X&X&X&X&X&X&X$X+X).F.M.1.Q G F S S S A A S S S S S S S S S S ",
"A F G } G.+X$X&X&X&X&X&X&X&X&X&X&X&X&X&X&X&X&X&X&X&X&X&X&X&X&X&X&X&X&X&X&X&X&X&X%X'.b.#. .R G F S S S A A A S S S S S S A S S S "
};
